<?xml version="1.0" encoding="UTF-8"?>
<svg id="Layer_1" data-name="Layer 1" xmlns="http://www.w3.org/2000/svg" viewBox="0 0 1000 1000">
  <circle cx="500" cy="500" r="500" fill="#fff"/>
  <g>
    <path d="M112.91,670.33v-31.68l36.48-5.04v-279.84l-36-6.72v-33.36h163.92v33.36l-45.6,6.72v279.12l90-4.8,36.24-95.04,40.32,5.76-13.92,131.52H112.91Z" fill="#009"/>
    <path d="M448.42,633.61l38.88-279.84-52.08-6.72v-33.36h167.28l45.6,200.88,11.04,53.04,10.08-53.04,51.12-200.88h162v33.36l-53.04,6.72,38.16,279.36,36.96,5.52v31.68h-161.76v-31.68l40.8-5.28-18.96-206.88-8.4-84.72-16.8,77.04-64.32,237.84h-62.88l-63.6-231.36-20.16-83.76-8.64,84.96-21.36,206.88,47.52,5.28v31.68h-135.6v-31.68l38.16-5.04Z" fill="#009"/>
  </g>
</svg>